<svg width="64" height="64" viewBox="0 0 64 64" fill="none" xmlns="http://www.w3.org/2000/svg">
<path d="M7.49244 13.8561C7.37394 10.4486 10.0284 7.30664 13.6169 7.30664H50.3869C53.9754 7.30664 56.6299 10.4486 56.5114 13.8561C56.3974 17.1291 56.5454 21.3691 57.6124 24.8261C58.6829 28.2941 60.4879 30.4856 63.4444 30.7676V33.9611C60.4879 34.2431 58.6829 36.4346 57.6124 39.9026C56.5454 43.3596 56.3974 47.5996 56.5114 50.8726C56.6299 54.2801 53.9754 57.4216 50.3869 57.4216H13.6169C10.0284 57.4216 7.37394 54.2796 7.49244 50.8726C7.60644 47.5996 7.45844 43.3596 6.39094 39.9026C5.32094 36.4351 3.51094 34.2431 0.554443 33.9611V30.7676C3.51094 30.4861 5.32094 28.2941 6.39094 24.8261C7.45844 21.3691 7.60594 17.1291 7.49244 13.8561Z" fill="url(#paint0_linear_142_540)"/>
<g filter="url(#filter0_d_142_540)">
<path d="M33.5548 45.868C39.3643 45.868 42.8651 43.0235 42.8651 38.3317C42.8651 34.7853 40.3672 32.2178 36.6582 31.8113V31.6635C39.3832 31.2203 41.5216 28.6897 41.5216 25.8636C41.5216 21.8369 38.3425 19.2139 33.4981 19.2139H22.5981V45.868H33.5548ZM26.837 22.5941H32.4763C35.5418 22.5941 37.2827 23.961 37.2827 26.4361C37.2827 29.0776 35.258 30.5553 31.5868 30.5553H26.837V22.5941ZM26.837 42.4877V33.7138H32.4383C36.4501 33.7138 38.5317 35.1915 38.5317 38.0731C38.5317 40.9545 36.5069 42.4877 32.6843 42.4877H26.837Z" fill="url(#paint1_linear_142_540)"/>
<path d="M33.5548 45.868C39.3643 45.868 42.8651 43.0235 42.8651 38.3317C42.8651 34.7853 40.3672 32.2178 36.6582 31.8113V31.6635C39.3832 31.2203 41.5216 28.6897 41.5216 25.8636C41.5216 21.8369 38.3425 19.2139 33.4981 19.2139H22.5981V45.868H33.5548ZM26.837 22.5941H32.4763C35.5418 22.5941 37.2827 23.961 37.2827 26.4361C37.2827 29.0776 35.258 30.5553 31.5868 30.5553H26.837V22.5941ZM26.837 42.4877V33.7138H32.4383C36.4501 33.7138 38.5317 35.1915 38.5317 38.0731C38.5317 40.9545 36.5069 42.4877 32.6843 42.4877H26.837Z" stroke="white" stroke-width="0.24566"/>
</g>
<defs>
<filter id="filter0_d_142_540" x="18.5448" y="16.1431" width="28.3737" height="34.7609" filterUnits="userSpaceOnUse" color-interpolation-filters="sRGB">
<feFlood flood-opacity="0" result="BackgroundImageFix"/>
<feColorMatrix in="SourceAlpha" type="matrix" values="0 0 0 0 0 0 0 0 0 0 0 0 0 0 0 0 0 0 127 0" result="hardAlpha"/>
<feOffset dy="0.98264"/>
<feGaussianBlur stdDeviation="1.96528"/>
<feColorMatrix type="matrix" values="0 0 0 0 0 0 0 0 0 0 0 0 0 0 0 0 0 0 0.15 0"/>
<feBlend mode="normal" in2="BackgroundImageFix" result="effect1_dropShadow_142_540"/>
<feBlend mode="normal" in="SourceGraphic" in2="effect1_dropShadow_142_540" result="shape"/>
</filter>
<linearGradient id="paint0_linear_142_540" x1="9.89973" y1="8.63296" x2="64.854" y2="52.2563" gradientUnits="userSpaceOnUse">
<stop stop-color="#9013FE"/>
<stop offset="1" stop-color="#6610F2"/>
</linearGradient>
<linearGradient id="paint1_linear_142_540" x1="24.5158" y1="20.9679" x2="36.7988" y2="41.7421" gradientUnits="userSpaceOnUse">
<stop stop-color="white"/>
<stop offset="1" stop-color="#F1E5FC"/>
</linearGradient>
</defs>
</svg>