<svg width="64" height="64" viewBox="0 0 64 64" fill="none" xmlns="http://www.w3.org/2000/svg">
<path d="M57.7 15.35L33.55 1.45001C33.15 1.20001 32.6 1.10001 32 1.10001C31.4 1.10001 30.85 1.25001 30.45 1.45001L6.45 15.4C5.6 15.9 5 17.15 5 18.1V45.95C5 46.5 5.1 47.15 5.5 47.7L58.9 16.7C58.6 16.1 58.15 15.65 57.7 15.35Z" fill="#659AD3"/>
<path d="M5.3501 47.65C5.6001 48.05 5.9501 48.4 6.3001 48.6L30.4001 62.55C30.8001 62.8 31.3501 62.9 31.9501 62.9C32.5501 62.9 33.1001 62.75 33.5001 62.55L57.5001 48.6C58.3501 48.1 58.9501 46.85 58.9501 45.9V18.05C58.9501 17.6 58.9001 17.1 58.6501 16.65L5.3501 47.65Z" fill="#03599C"/>
<path d="M42.65 38.05C40.55 41.75 36.55 44.25 32 44.25C25.25 44.25 19.75 38.75 19.75 32C19.75 25.25 25.25 19.75 32 19.75C36.55 19.75 40.55 22.25 42.65 26L49.15 22.25C45.75 16.3 39.35 12.25 32 12.25C21.1 12.25 12.25 21.1 12.25 32C12.25 42.9 21.1 51.75 32 51.75C39.3 51.75 45.7 47.75 49.1 41.85L42.65 38.05Z" fill="white"/>
</svg>