<svg width="64" height="64" viewBox="0 0 64 64" fill="none" xmlns="http://www.w3.org/2000/svg">
<path d="M11.6001 49.2L11.9401 48.726L27.9801 18.298L28.0141 17.976L20.9441 4.696C20.8147 4.45316 20.6121 4.25716 20.3652 4.13573C20.1183 4.01431 19.8394 3.9736 19.568 4.01938C19.2967 4.06516 19.0466 4.1951 18.8531 4.39082C18.6597 4.58654 18.5327 4.83813 18.4901 5.11L11.6001 49.2Z" fill="#FFC24A"/>
<path d="M11.8 48.84L12.056 48.34L27.93 18.228L20.878 4.896C20.7618 4.66414 20.5735 4.47621 20.3414 4.36036C20.1093 4.24451 19.846 4.20697 19.5908 4.25337C19.3356 4.29977 19.1023 4.42761 18.9258 4.61774C18.7494 4.80787 18.6393 5.05005 18.612 5.308L11.8 48.84Z" fill="#FFA712"/>
<path d="M33.1679 28.02L38.4319 22.62L33.1659 12.578C33.05 12.3619 32.8777 12.1812 32.6672 12.0553C32.4568 11.9294 32.2162 11.8629 31.9709 11.8629C31.7257 11.8629 31.485 11.9294 31.2746 12.0553C31.0642 12.1812 30.8918 12.3619 30.7759 12.578L27.9619 17.942V18.4L33.1679 28.02Z" fill="#F4BD62"/>
<path d="M33.0739 27.8L38.1919 22.56L33.0739 12.8C32.9901 12.5887 32.8471 12.4062 32.6619 12.2745C32.4767 12.1427 32.2574 12.0673 32.0304 12.0573C31.8033 12.0474 31.5782 12.1034 31.3823 12.2185C31.1863 12.3335 31.0278 12.5029 30.9259 12.706L28.0979 18.164L28.0139 18.442L33.0739 27.8Z" fill="#FFA50E"/>
<path d="M11.604 49.202L11.758 49.046L12.316 48.82L32.836 28.376L33.096 27.668L27.978 17.912L11.604 49.202Z" fill="#F6820C"/>
<path d="M33.8241 59.512L52.4001 49.154L47.0921 16.492C47.054 16.2617 46.9533 16.0464 46.8009 15.8697C46.6485 15.693 46.4503 15.5616 46.2282 15.4901C46.006 15.4186 45.7685 15.4097 45.5416 15.4644C45.3147 15.519 45.1073 15.6352 44.9421 15.8L11.6001 49.2L30.0661 59.51C30.6402 59.8303 31.2867 59.9985 31.9441 59.9985C32.6015 59.9985 33.248 59.8303 33.8221 59.51" fill="#FDE068"/>
<path d="M52.23 49.068L46.966 16.652C46.9568 16.4318 46.8823 16.2192 46.7522 16.0413C46.6221 15.8634 46.4421 15.7281 46.235 15.6525C46.028 15.5769 45.8032 15.5645 45.589 15.6167C45.3749 15.6689 45.181 15.7835 45.0321 15.946L11.8 49.138L30.062 59.338C30.6316 59.6557 31.2729 59.8225 31.925 59.8225C32.5772 59.8225 33.2185 59.6557 33.788 59.338L52.23 49.068Z" fill="#FCCA3F"/>
<path d="M33.8241 59.2C33.25 59.5203 32.6035 59.6885 31.9461 59.6885C31.2887 59.6885 30.6422 59.5203 30.0681 59.2L11.7521 49.044L11.6001 49.2L30.0661 59.51C30.6402 59.8303 31.2867 59.9985 31.9441 59.9985C32.6015 59.9985 33.248 59.8303 33.8221 59.51L52.4001 49.154L52.3541 48.874L33.8241 59.2Z" fill="#EEAB37"/>
</svg>