<svg width="64" height="64" viewBox="0 0 64 64" fill="none" xmlns="http://www.w3.org/2000/svg">
<g clip-path="url(#clip0_322_689)">
<path d="M27.2 0V17.216L32 23.808L36.8 17.216V0H27.2ZM36.8 17.216V25.408L44.544 22.848L54.72 8.96L46.912 3.264L36.8 17.216ZM44.544 22.848L39.744 29.504L47.552 32L63.936 26.688L60.928 17.536L44.544 22.848ZM47.552 32L39.744 34.496L44.544 41.152L60.928 46.464L63.936 37.312L47.552 32ZM44.544 41.152L36.8 38.592V46.784L46.912 60.736L54.72 55.04L44.544 41.152ZM36.8 46.784L32 40.192L27.2 46.784V64H36.8V46.784ZM27.2 46.784V38.592L19.456 41.152L9.27996 55.04L17.088 60.736L27.2 46.784ZM19.456 41.152L24.256 34.496L16.448 32L0.0639648 37.312L3.07196 46.464L19.456 41.152ZM16.448 32L24.256 29.504L19.456 22.848L3.07196 17.536L0.0639648 26.688L16.448 32ZM19.456 22.848L27.2 25.408V17.216L17.088 3.264L9.27996 8.96L19.456 22.848Z" fill="black"/>
</g>
<defs>
<clipPath id="clip0_322_689">
<rect width="64" height="64" fill="white"/>
</clipPath>
</defs>
</svg>