<svg width="64" height="64" viewBox="0 0 64 64" fill="none" xmlns="http://www.w3.org/2000/svg">
<g clip-path="url(#clip0_567_807)">
<path d="M62.9953 14.4532C63.0183 14.5384 63.0303 14.6262 63.0303 14.7145V28.4279C63.0303 28.7862 62.8387 29.1171 62.5279 29.2953L51.0179 35.9221V49.0569C51.0179 49.4144 50.8279 49.7443 50.518 49.9243L26.4919 63.7553C26.4369 63.7865 26.3769 63.8065 26.3169 63.8277C26.2944 63.8352 26.2732 63.849 26.2494 63.8552C26.0815 63.8995 25.9049 63.8995 25.737 63.8552C25.7095 63.8477 25.6845 63.8328 25.6582 63.8228C25.6032 63.8028 25.5457 63.7853 25.4933 63.7553L1.47217 49.9243C1.16157 49.7459 0.969727 49.4151 0.969727 49.0569V7.91646C0.969727 7.82647 0.982225 7.73898 1.00472 7.65399C1.01222 7.62524 1.02972 7.59899 1.03972 7.57025C1.05847 7.51775 1.07596 7.46401 1.10346 7.41526C1.12221 7.38277 1.14971 7.35652 1.1722 7.32652C1.20095 7.28653 1.2272 7.24528 1.26094 7.21029C1.28969 7.18154 1.32719 7.16029 1.35968 7.1353C1.39593 7.1053 1.42843 7.0728 1.46967 7.04906H1.47092L13.4821 0.133574C13.7916 -0.0445247 14.1725 -0.0445247 14.482 0.133574L26.4931 7.04906H26.4956C26.5356 7.07405 26.5694 7.1053 26.6056 7.13405C26.6381 7.15904 26.6744 7.18154 26.7031 7.20904C26.7381 7.24528 26.7631 7.28653 26.7931 7.32652C26.8144 7.35652 26.8431 7.38277 26.8606 7.41526C26.8893 7.46526 26.9056 7.51775 26.9256 7.57025C26.9356 7.59899 26.9531 7.62524 26.9606 7.65524C26.9836 7.74041 26.9954 7.82823 26.9956 7.91646V33.6124L37.0045 27.8492V14.7132C37.0045 14.6257 37.017 14.537 37.0395 14.4532C37.0482 14.4232 37.0645 14.397 37.0745 14.3682C37.0945 14.3157 37.112 14.262 37.1395 14.2133C37.1582 14.1808 37.1857 14.1545 37.2069 14.1245C37.2369 14.0845 37.2619 14.0433 37.2969 14.0083C37.3257 13.9795 37.3619 13.9583 37.3944 13.9333C37.4319 13.9033 37.4644 13.8708 37.5044 13.8471H37.5057L49.5181 6.93157C49.8275 6.75321 50.2085 6.75321 50.518 6.93157L62.5291 13.8471C62.5716 13.872 62.6041 13.9033 62.6416 13.932C62.6729 13.957 62.7091 13.9795 62.7379 14.007C62.7729 14.0433 62.7979 14.0845 62.8279 14.1245C62.8504 14.1545 62.8778 14.1808 62.8953 14.2133C62.9241 14.262 62.9403 14.3157 62.9603 14.3682C62.9716 14.397 62.9878 14.4232 62.9953 14.4532ZM61.0281 27.8492V16.4455L56.8248 18.8652L51.0179 22.2086V33.6124L61.0293 27.8492H61.0281ZM49.0169 48.4782V37.067L43.305 40.3291L26.9943 49.6381V61.1568L49.0169 48.4782ZM2.972 9.64752V48.4782L24.9921 61.1555V49.6393L13.4883 43.1288L13.4846 43.1263L13.4796 43.1238C13.4408 43.1013 13.4083 43.0688 13.3721 43.0413C13.3409 43.0163 13.3046 42.9963 13.2771 42.9688L13.2746 42.9651C13.2421 42.9338 13.2196 42.8951 13.1921 42.8601C13.1671 42.8263 13.1371 42.7976 13.1171 42.7626L13.1159 42.7588C13.0934 42.7213 13.0796 42.6763 13.0634 42.6339C13.0471 42.5964 13.0259 42.5614 13.0159 42.5214V42.5201C13.0034 42.4726 13.0009 42.4226 12.9959 42.3739C12.9909 42.3364 12.9809 42.2989 12.9809 42.2614V42.2589V15.4106L7.17529 12.066L2.972 9.64877V9.64752ZM13.9833 2.15585L3.97564 7.91646L13.9808 13.6771L23.9872 7.91521L13.9808 2.15585H13.9833ZM19.1877 38.1069L24.9933 34.7647V9.64752L20.79 12.0672L14.9832 15.4106V40.5278L19.1877 38.1069ZM50.018 8.95384L40.0116 14.7145L50.018 20.4751L60.0232 14.7132L50.018 8.95384ZM49.0169 22.2086L43.21 18.8652L39.0067 16.4455V27.8492L44.8124 31.1914L49.0169 33.6124V22.2086ZM25.9919 47.907L40.6691 39.5279L48.0058 35.3409L38.0069 29.5841L26.4944 36.2121L16.0018 42.2526L25.9919 47.907Z" fill="#FF2D20"/>
</g>
<defs>
<clipPath id="clip0_567_807">
<rect width="64" height="64" fill="white"/>
</clipPath>
</defs>
</svg>