<svg width="64" height="64" viewBox="0 0 64 64" fill="none" xmlns="http://www.w3.org/2000/svg">
<path fill-rule="evenodd" clip-rule="evenodd" d="M44.0191 21.406C44.8216 23.7275 45.3996 26.0975 45.5896 28.554C45.8256 31.6015 45.7176 34.6275 45.0751 37.625C45.0576 37.7075 45.0206 37.785 44.9931 37.865C44.7916 37.8655 44.5861 37.8405 44.3891 37.871C42.7246 38.1325 41.0616 38.4035 39.3986 38.673C37.6796 38.9515 35.9581 39.219 34.2421 39.5165C33.6341 39.6215 32.8816 39.496 32.6361 40.337C32.6291 40.36 32.5591 40.364 32.5186 40.377L32.6016 35.3515L32.5171 23.2255L33.3181 23.088C34.6281 22.8735 35.9381 22.656 37.2491 22.4475C38.8136 22.199 40.3796 21.9575 41.9451 21.715C42.6356 21.6075 43.3271 21.509 44.0191 21.406Z" fill="#439934"/>
<path fill-rule="evenodd" clip-rule="evenodd" d="M30.8644 55.027C30.0194 54.3005 29.1449 53.606 28.3349 52.842C23.9764 48.731 20.7884 43.8925 19.2184 38.059C18.7859 36.4535 18.4974 34.822 18.4049 33.163C18.3399 32.002 18.2459 30.8305 18.3279 29.6755C18.5464 26.6035 18.9904 23.561 19.8914 20.602L19.9409 20.533C20.0284 20.6495 20.1544 20.7525 20.1989 20.884C21.0784 23.474 21.9514 26.066 22.8199 28.6595C25.5489 36.8095 28.2744 44.9615 31.0079 53.1095C31.0614 53.2685 31.1999 53.399 31.2994 53.5425L30.8644 55.027Z" fill="#45A538"/>
<path fill-rule="evenodd" clip-rule="evenodd" d="M44.019 21.406C43.327 21.509 42.635 21.6075 41.9445 21.714C40.379 21.9565 38.813 22.198 37.2485 22.4465C35.9375 22.655 34.6275 22.8725 33.3175 23.087L32.5165 23.2245L32.5105 22.702C32.484 22.2725 32.4385 21.8435 32.4335 21.414C32.399 18.675 32.3775 15.936 32.3435 13.197C32.3225 11.4825 32.291 9.76848 32.256 8.05448C32.2345 6.98948 32.2115 5.92399 32.1635 4.86048C32.1375 4.28898 32.0455 3.72048 32.008 3.14898C31.987 2.82048 32.016 2.48948 32.0225 2.15948C32.431 2.95098 32.8305 3.74848 33.2505 4.53398C33.914 5.77598 34.971 6.69098 35.9225 7.68948C39.684 11.6355 42.3545 16.2235 44.019 21.406Z" fill="#46A037"/>
<path fill-rule="evenodd" clip-rule="evenodd" d="M32.518 40.3765C32.5585 40.3635 32.629 40.3595 32.6355 40.3365C32.881 39.4955 33.6335 39.621 34.2415 39.516C35.9575 39.219 37.679 38.951 39.398 38.6725C41.061 38.403 42.724 38.132 44.3885 37.8705C44.5855 37.8395 44.791 37.865 44.9925 37.8645C44.6815 38.9745 44.4365 40.1085 44.042 41.188C43.594 42.4125 43.052 43.6075 42.4765 44.779C41.6149 46.5263 40.5486 48.165 39.3 49.6605C38.3405 50.8145 37.271 51.881 36.199 52.9345C35.6065 53.517 34.908 53.9915 34.258 54.515L34.0895 54.4L33.4825 53.881L32.8545 52.5045C32.4255 50.8988 32.1915 49.2472 32.1575 47.5855L32.169 47.305L32.2545 46.092C32.283 45.678 32.321 45.2645 32.3385 44.8495C32.403 43.3585 32.459 41.8675 32.518 40.3765Z" fill="#409433"/>
<path fill-rule="evenodd" clip-rule="evenodd" d="M32.5179 40.3765C32.4589 41.8675 32.4029 43.3585 32.3394 44.85C32.3219 45.265 32.2839 45.6785 32.2554 46.0925L31.8729 46.237C31.0234 43.736 30.1734 41.2615 29.3419 38.7805C27.9669 34.676 26.6084 30.565 25.2354 26.4595C24.1265 23.1457 23.0098 19.8346 21.8854 16.526C21.8329 16.371 21.6819 16.25 21.5769 16.113L24.0249 11.612C24.1089 11.758 24.2199 11.8945 24.2729 12.0515C25.4067 15.4026 26.5347 18.7556 27.6569 22.1105C29.1149 26.4755 30.5639 30.844 32.0209 35.2095C32.0789 35.384 32.1749 35.545 32.2664 35.7405L32.6014 35.3505L32.5179 40.3765Z" fill="#4FAA41"/>
<path fill-rule="evenodd" clip-rule="evenodd" d="M21.5774 16.1135C21.6824 16.2505 21.8329 16.3715 21.8859 16.5265C23.0103 19.8351 24.127 23.1462 25.2359 26.46C26.6089 30.5655 27.9674 34.6765 29.3424 38.781C30.1734 41.2615 31.0234 43.7365 31.8734 46.2375L32.2559 46.093L32.1704 47.306L32.0929 47.5855C31.9599 48.9135 31.8479 50.2445 31.6859 51.5695C31.6044 52.2335 31.4314 52.8855 31.2999 53.543C31.2009 53.3995 31.0619 53.269 31.0084 53.11C28.2749 44.9615 25.5494 36.81 22.8204 28.66C21.9522 26.0663 21.0785 23.4745 20.1994 20.8845C20.1549 20.753 20.0294 20.65 19.9414 20.5335L21.5774 16.1135Z" fill="#4AA73C"/>
<path fill-rule="evenodd" clip-rule="evenodd" d="M32.6009 35.351L32.2659 35.741C32.1744 35.5455 32.0784 35.384 32.0204 35.21C30.5639 30.8445 29.1144 26.476 27.6564 22.111C26.5342 18.7561 25.4062 15.4031 24.2724 12.052C24.2199 11.895 24.1089 11.758 24.0244 11.6125L27.0519 7.63C27.1474 7.7575 27.2834 7.871 27.3329 8.0145C28.1734 10.475 29.0064 12.9385 29.8344 15.4035C30.6079 17.7055 31.3699 20.011 32.1524 22.31C32.2049 22.464 32.3874 22.573 32.5094 22.703L32.5154 23.2255C32.5444 27.2665 32.5729 31.309 32.6009 35.351Z" fill="#57AE47"/>
<path fill-rule="evenodd" clip-rule="evenodd" d="M32.5105 22.702C32.3885 22.572 32.206 22.463 32.1535 22.309C31.371 20.01 30.609 17.7045 29.8355 15.4025C29.0075 12.9375 28.1745 10.4745 27.334 8.01351C27.2845 7.87001 27.1485 7.75651 27.053 7.62901C28.0375 6.66501 28.9915 5.66651 30.0155 4.74701C30.926 3.93001 31.658 3.05401 31.6915 1.76301C31.693 1.70951 31.721 1.65601 31.764 1.50601L32.0235 2.15901C32.017 2.48951 31.9875 2.82001 32.009 3.14851C32.0465 3.72001 32.1385 4.28851 32.1645 4.86001C32.2125 5.92351 32.2355 6.98901 32.257 8.05401C32.2915 9.76801 32.323 11.482 32.3445 13.1965C32.378 15.9355 32.4 18.6745 32.4345 21.4135C32.4385 21.844 32.4835 22.2725 32.5105 22.702Z" fill="#60B24F"/>
<path fill-rule="evenodd" clip-rule="evenodd" d="M31.299 53.5425C31.4305 52.885 31.6035 52.2325 31.685 51.569C31.8475 50.2445 31.959 48.913 32.092 47.585L32.125 47.58L32.158 47.5855C32.192 49.2472 32.4261 50.8988 32.855 52.5045C32.767 52.6205 32.6425 52.724 32.596 52.855C32.2325 53.88 31.89 54.913 31.5245 55.938C31.4745 56.078 31.3355 56.187 31.2375 56.31L30.864 55.027L31.299 53.5425Z" fill="#A9AA88"/>
<path fill-rule="evenodd" clip-rule="evenodd" d="M31.238 56.3105C31.336 56.1875 31.4755 56.0785 31.525 55.9385C31.8905 54.9135 32.2335 53.881 32.5965 52.8555C32.643 52.7245 32.767 52.621 32.8555 52.505L33.483 53.882C33.359 54.058 33.188 54.2165 33.119 54.4125L31.917 57.942C31.8675 58.0835 31.6985 58.1835 31.5855 58.303L31.238 56.3105Z" fill="#B6B598"/>
<path fill-rule="evenodd" clip-rule="evenodd" d="M31.5854 58.3025C31.6989 58.1835 31.8674 58.083 31.9169 57.9415L33.1189 54.412C33.1874 54.2165 33.359 54.0575 33.483 53.8815L34.0904 54.4C33.7969 54.69 33.6339 55.025 33.7319 55.4485L33.5474 56.0525C33.4634 56.156 33.3419 56.246 33.3004 56.3645C32.8809 57.566 32.4804 58.774 32.0579 59.9755C32.0044 60.128 31.8559 60.2475 31.7509 60.3815C31.6964 59.688 31.6409 58.996 31.5854 58.3025Z" fill="#C2C1A7"/>
<path fill-rule="evenodd" clip-rule="evenodd" d="M31.7514 60.3815C31.8559 60.247 32.0044 60.1275 32.0584 59.9755C32.4809 58.7745 32.8814 57.5665 33.3009 56.3645C33.3424 56.2465 33.4634 56.156 33.5479 56.0525L33.2934 58.825C33.2254 58.9035 33.1269 58.972 33.0944 59.0635C32.8069 59.8705 32.5359 60.6835 32.2474 61.4905C32.1879 61.657 32.0739 61.804 31.9849 61.9595C31.9059 61.856 31.7644 61.756 31.7579 61.648C31.7324 61.2275 31.7499 60.804 31.7514 60.3815Z" fill="#CECDB7"/>
<path fill-rule="evenodd" clip-rule="evenodd" d="M31.9846 61.9595C32.0736 61.8035 32.1876 61.6565 32.2471 61.4905C32.5361 60.684 32.8066 59.871 33.0941 59.0635C33.1266 58.972 33.2256 58.904 33.2931 58.825L33.2991 60.645L32.6901 62.207L31.9846 61.9595Z" fill="#DBDAC7"/>
<path fill-rule="evenodd" clip-rule="evenodd" d="M32.6899 62.2075L33.2989 60.6455L33.4244 62.4935L32.6899 62.2075Z" fill="#EBE9DC"/>
<path fill-rule="evenodd" clip-rule="evenodd" d="M33.7319 55.449C33.6339 55.0255 33.7964 54.69 34.0904 54.4005L34.2589 54.5155L33.7319 55.449Z" fill="#CECDB7"/>
<path fill-rule="evenodd" clip-rule="evenodd" d="M32.158 47.586L32.125 47.5805L32.092 47.5855L32.1695 47.306L32.158 47.586Z" fill="#4FAA41"/>
</svg>