<svg width="64" height="64" viewBox="0 0 64 64" fill="none" xmlns="http://www.w3.org/2000/svg">
<path d="M62.7385 61.3915L61.4305 60.123C60.191 58.477 58.5965 57.031 56.923 55.8305C55.5885 54.8725 52.5925 53.5785 52.0355 52.026L51.933 51.9285C52.8795 51.8215 53.9845 51.4795 54.858 51.245C56.325 50.852 57.536 50.9535 59.051 50.5625C59.734 50.3675 60.5005 50.172 61.0005 49.977V49.587C60.5005 48.8015 59.787 47.7615 58.952 47.0505C56.7675 45.1905 54.4315 43.332 51.9765 41.782C50.615 40.923 48.956 40.3645 47.5135 39.636C47.028 39.3905 46.1875 39.263 45.8665 38.855C45.108 37.889 44.7025 36.664 44.1175 35.5385C42.893 33.18 41.693 30.6045 40.608 28.123C39.868 26.431 39.3865 24.763 38.4635 23.245C34.0335 15.9615 29.266 11.566 21.88 7.24499C20.3075 6.32599 18.4155 5.96349 16.4155 5.48849C15.3435 5.42399 14.27 5.35849 13.197 5.29299C12.5415 5.01999 11.86 4.21849 11.246 3.82949C8.79805 2.28349 2.52155 -1.07901 0.709047 3.34199C-0.435453 6.13249 2.41905 8.85449 3.44005 10.269C4.15755 11.26 5.07505 12.3725 5.58655 13.488C5.92405 14.2215 5.98155 14.957 6.27005 15.7325C6.97905 17.6435 7.59555 19.7225 8.51355 21.488C8.97705 22.382 9.48805 23.323 10.0745 24.122C10.4335 24.6125 11.0495 24.8285 11.147 25.5855C10.545 26.4285 10.5105 27.7375 10.172 28.8055C8.64705 33.613 9.22305 39.589 11.4405 43.147C12.1205 44.24 13.7235 46.5825 15.928 45.6835C17.856 44.8985 17.541 42.4645 18.0925 40.3175C18.217 39.8315 18 39.4735 18.5 39.147V39.2445C19.0116 40.4314 19.5589 41.6026 20.141 42.7565C21.441 44.85 23.5855 47.0375 25.54 48.5135C26.5535 49.279 27.5 50.602 28.5 51.05V50.9995H28.6105C28.357 50.4995 27.9595 50.416 27.6355 50.0975C26.872 49.3495 26.0225 48.4065 25.392 47.549C23.614 45.1355 22.043 42.488 20.6115 39.738C19.9275 38.425 19.333 36.9735 18.757 35.6375C18.5355 35.1225 18.538 34.3415 18.075 34.075C17.4435 35.054 16.514 35.845 16.0255 37.0015C15.245 38.8495 15.1445 41.1035 14.855 43.44C14.6835 43.501 14.76 43.459 14.6595 43.537C13.3005 43.2095 12.8235 41.811 12.318 40.6105C11.0405 37.5755 10.8035 32.689 11.9275 29.196C12.2185 28.2915 13.533 25.4455 13.0005 24.61C12.7465 23.7775 11.9085 23.295 11.44 22.6585C10.8595 21.8715 10.2805 20.8355 9.87855 19.9265C8.83305 17.561 8.34555 14.9045 7.24455 12.5125C6.71805 11.369 5.82855 10.2115 5.09805 9.19549C4.28955 8.06899 3.38355 7.23949 2.75605 5.87799C2.53355 5.39399 2.23055 4.61899 2.56105 4.12149C2.66605 3.78599 2.81455 3.64599 3.14655 3.53649C3.71305 3.09999 5.28805 3.68149 5.87805 3.92599C7.44255 4.57599 8.74855 5.17599 10.074 6.05399C10.7095 6.47599 11.3535 6.99899 12.1225 7.49899H13.0005C14.374 7.49899 15.9125 7.61499 17.196 8.00499C19.4635 8.69449 21.496 9.77599 23.342 10.9415C28.965 14.4925 33.5625 19.5515 36.708 25.5805C37.214 26.5515 37.433 27.48 37.8785 28.5095C38.7775 30.586 39.9105 32.7235 40.805 34.754C41.698 36.7805 42.568 38.825 43.83 40.511C44.4935 41.397 47.0555 41.873 48.22 42.3655C49.0365 42.71 50.374 43.07 51.147 43.5355C52.6235 44.4265 54.054 45.4875 55.44 46.463C56.132 46.95 58.26 48.02 58.3665 48.902C54.935 48.808 52.3145 49.128 50.074 50.0725C49.4375 50.341 48.4215 50.3485 48.3175 51.146C48.6675 51.5125 48.722 52.0605 49 52.5115C49.5345 53.3765 50.438 54.5375 51.244 55.1455C52.125 55.8105 53.032 56.521 53.976 57.0965C55.6555 58.12 57.5295 58.705 59.1465 59.7305C60.0995 60.3355 61.1255 61.097 62.054 61.779C62.514 62.1165 62.4995 62.641 63.4995 62.8525V62.7555C63 62.358 63.0265 61.809 62.7385 61.3915ZM14.757 11.7325C14.0415 11.719 13.5 11.811 13 11.927V12H13.099C13.4405 12.5 14.043 13.165 14.4645 13.769L15.4405 15.823L15.537 15.7295C16.1415 15.303 16.4185 14.624 16.415 13.584C16.1735 13.3295 16.137 13.011 15.928 12.707C15.649 12.3025 15.1085 12.073 14.757 11.7325Z" fill="#00618A"/>
</svg>