<svg width="64" height="64" viewBox="0 0 64 64" fill="none" xmlns="http://www.w3.org/2000/svg">
<path d="M45.7424 22.616L45.72 22.6064C45.7072 22.6016 45.6944 22.5968 45.6832 22.5856C45.6648 22.5659 45.6512 22.5422 45.6435 22.5164C45.6357 22.4906 45.634 22.4634 45.6384 22.4368L46.8752 14.8752L52.6752 20.6768L46.6432 23.2432C46.6264 23.25 46.6085 23.2532 46.5904 23.2528H46.5664C46.5584 23.248 46.5504 23.2416 46.5344 23.2256C46.3099 22.9757 46.0415 22.769 45.7424 22.616ZM54.1552 22.1552L60.3568 28.3568C61.6448 29.6464 62.2896 30.2896 62.5248 31.0352C62.56 31.1456 62.5888 31.256 62.6112 31.3696L47.7904 25.0928C47.7824 25.0895 47.7744 25.0863 47.7664 25.0832C47.7072 25.0592 47.6384 25.032 47.6384 24.9712C47.6384 24.9104 47.7088 24.8816 47.768 24.8576L47.7872 24.8496L54.1552 22.1552ZM62.3584 33.36C62.0384 33.9616 61.4144 34.5856 60.3584 35.6432L53.3664 42.6336L44.3232 40.7504L44.2752 40.7408C44.1952 40.728 44.1104 40.7136 44.1104 40.6416C44.076 40.2686 43.9653 39.9066 43.785 39.5782C43.6047 39.2498 43.3587 38.962 43.0624 38.7328C43.0256 38.696 43.0352 38.6384 43.0464 38.5856C43.0464 38.5776 43.0464 38.5696 43.0496 38.5632L44.7504 28.1216L44.7568 28.0864C44.7664 28.0064 44.7808 27.9136 44.8528 27.9136C45.2173 27.8683 45.5691 27.7508 45.8877 27.5682C46.2064 27.3855 46.4855 27.1412 46.7088 26.8496C46.7232 26.8336 46.7328 26.816 46.752 26.8064C46.8032 26.7824 46.864 26.8064 46.9168 26.8288L62.3584 33.36ZM51.7584 44.2416L40.2608 55.7392L42.2288 43.6432L42.232 43.6272C42.2336 43.6112 42.2368 43.5952 42.2416 43.5808C42.2576 43.5424 42.2992 43.5264 42.3392 43.5104L42.3584 43.5024C42.7893 43.3186 43.1704 43.0351 43.4704 42.6752C43.5088 42.6304 43.5552 42.5872 43.6144 42.5792C43.6298 42.5767 43.6454 42.5767 43.6608 42.5792L51.7568 44.2432L51.7584 44.2416ZM37.8272 58.1728L36.5312 59.4688L22.2032 38.7616C22.198 38.754 22.1927 38.7466 22.1872 38.7392C22.1648 38.7088 22.1408 38.6784 22.1456 38.6432C22.1472 38.6176 22.1632 38.5952 22.1808 38.576L22.1968 38.5552C22.24 38.4912 22.2768 38.4272 22.3168 38.3584L22.3488 38.3024L22.3536 38.2976C22.376 38.2592 22.3968 38.2224 22.4352 38.2016C22.4688 38.1856 22.5152 38.192 22.552 38.2L38.4256 41.4736C38.47 41.4805 38.5118 41.4987 38.5472 41.5264C38.568 41.5472 38.5728 41.5696 38.5776 41.5952C38.6883 42.0141 38.8944 42.4018 39.1797 42.7279C39.465 43.0541 39.8219 43.3098 40.2224 43.4752C40.2672 43.4976 40.248 43.5472 40.2272 43.6C40.2168 43.6231 40.2088 43.6473 40.2032 43.672C40.0032 44.888 38.288 55.3488 37.8272 58.1728ZM35.12 60.8784C34.1648 61.824 33.6016 62.3248 32.9648 62.5264C32.3369 62.7249 31.6631 62.7249 31.0352 62.5264C30.2896 62.2896 29.6448 61.6464 28.3568 60.3568L13.968 45.968L17.7264 40.1392C17.744 40.1104 17.7616 40.0848 17.7904 40.064C17.8304 40.0352 17.888 40.048 17.936 40.064C18.7986 40.3243 19.7249 40.2773 20.5568 39.9312C20.6 39.9152 20.6432 39.904 20.6768 39.9344C20.6936 39.9497 20.7086 39.9669 20.7216 39.9856L35.12 60.8784ZM12.5808 44.5808L9.27999 41.28L15.7984 38.4992C15.8151 38.4919 15.833 38.4881 15.8512 38.488C15.9056 38.488 15.9376 38.5424 15.9664 38.592C16.0319 38.6928 16.1013 38.791 16.1744 38.8864L16.1952 38.912C16.2144 38.9392 16.2016 38.9664 16.1824 38.992L12.5808 44.5808ZM7.81919 39.8192L3.64319 35.6432C2.93279 34.9328 2.41759 34.4176 2.05919 33.9744L14.7568 36.608C14.7727 36.611 14.7887 36.6136 14.8048 36.616C14.8832 36.6288 14.9696 36.6432 14.9696 36.7168C14.9696 36.7968 14.8752 36.8336 14.7952 36.864L14.7584 36.88L7.81919 39.8192ZM1.32959 31.8272C1.34406 31.5582 1.39244 31.2921 1.47359 31.0352C1.71039 30.2896 2.35359 29.6464 3.64319 28.3568L8.98719 23.0128C11.4477 26.5838 13.9149 30.1502 16.3888 33.712C16.432 33.7696 16.48 33.8336 16.4304 33.8816C16.1968 34.1392 15.9632 34.4208 15.7984 34.7264C15.7805 34.7657 15.753 34.7998 15.7184 34.8256C15.6976 34.8384 15.6752 34.8336 15.6512 34.8288H15.648L1.32959 31.8272ZM10.4176 21.5824L17.6032 14.3968C18.2784 14.6928 20.736 15.7312 22.9344 16.6592C24.5984 17.3632 26.1152 18.0032 26.592 18.2112C26.64 18.2304 26.6832 18.2496 26.704 18.2976C26.7168 18.3264 26.7104 18.3632 26.704 18.3936C26.5902 18.9123 26.6072 19.4511 26.7532 19.9616C26.8993 20.4721 27.1699 20.9384 27.5408 21.3184C27.5888 21.3664 27.5408 21.4352 27.4992 21.4944L27.4768 21.528L20.1808 32.8288C20.1616 32.8608 20.144 32.888 20.112 32.9088C20.0736 32.9328 20.0192 32.9216 19.9744 32.9104C19.6906 32.8361 19.3989 32.7963 19.1056 32.792C18.8432 32.792 18.5584 32.84 18.2704 32.8928C18.2384 32.8976 18.208 32.904 18.1824 32.8848C18.1541 32.8617 18.1298 32.8341 18.1104 32.8032L10.4176 21.5824ZM19.0544 12.9456L28.3568 3.6432C29.6448 2.3552 30.2896 1.7104 31.0352 1.4752C31.6631 1.27666 32.3369 1.27666 32.9648 1.4752C33.7104 1.7104 34.3552 2.3552 35.6432 3.6432L37.6592 5.6592L31.0432 15.9056C31.0268 15.9354 31.0045 15.9616 30.9776 15.9824C30.9376 16.0096 30.8816 15.9984 30.8336 15.9824C30.312 15.8241 29.7596 15.7953 29.2244 15.8984C28.6891 16.0016 28.187 16.2336 27.7616 16.5744C27.7184 16.6192 27.6544 16.5936 27.6 16.5696C26.736 16.1936 20.016 13.3536 19.0544 12.9456ZM39.064 7.064L45.1728 13.1728L43.7008 22.2896V22.3136C43.6995 22.3344 43.6952 22.3549 43.688 22.3744C43.672 22.4064 43.64 22.4128 43.608 22.4224C43.2933 22.5177 42.9969 22.6654 42.7312 22.8592C42.7198 22.8673 42.7091 22.8764 42.6992 22.8864C42.6816 22.9056 42.664 22.9232 42.6352 22.9264C42.6118 22.9271 42.5884 22.9233 42.5664 22.9152L33.2576 18.96L33.24 18.952C33.1808 18.928 33.1104 18.8992 33.1104 18.8384C33.0557 18.3197 32.8863 17.8196 32.6144 17.3744C32.5696 17.3008 32.52 17.224 32.5584 17.1488L39.064 7.064ZM32.7728 20.8336L41.4992 24.5296C41.5472 24.552 41.6 24.5728 41.6208 24.6224C41.6291 24.6522 41.6291 24.6838 41.6208 24.7136C41.5952 24.8416 41.5728 24.9872 41.5728 25.1344V25.3792C41.5728 25.44 41.5104 25.4656 41.4528 25.4896L41.4352 25.496C40.0528 26.0864 22.0272 33.7728 22 33.7728C21.9728 33.7728 21.944 33.7728 21.9168 33.7456C21.8688 33.6976 21.9168 33.6304 21.96 33.5696C21.9676 33.5591 21.9751 33.5484 21.9824 33.5376L29.1536 22.4336L29.1664 22.4144C29.208 22.3472 29.256 22.272 29.3328 22.272L29.4048 22.2832C29.568 22.3056 29.712 22.3264 29.8576 22.3264C30.9456 22.3264 31.9536 21.7968 32.5616 20.8912C32.5761 20.867 32.5945 20.8454 32.616 20.8272C32.6592 20.7952 32.7232 20.8112 32.7728 20.8336ZM22.7792 35.5296L42.4272 27.1504C42.4272 27.1504 42.456 27.1504 42.4832 27.1776C42.5904 27.2848 42.6816 27.3568 42.7696 27.424L42.8128 27.4512C42.8528 27.4736 42.8928 27.4992 42.896 27.5408C42.896 27.5568 42.896 27.5664 42.8928 27.5808L41.2096 37.92L41.2032 37.9616C41.192 38.0416 41.1808 38.1328 41.1056 38.1328C40.6568 38.1631 40.2222 38.3023 39.8394 38.5385C39.4567 38.7746 39.1372 39.1006 38.9088 39.488L38.9008 39.5008C38.8784 39.5376 38.8576 39.5728 38.8208 39.592C38.7872 39.608 38.744 39.6016 38.7088 39.5936L23.04 36.3616C23.024 36.3584 22.7968 35.5312 22.7792 35.5296Z" fill="url(#paint0_radial_142_556)"/>
<defs>
<radialGradient id="paint0_radial_142_556" cx="0" cy="0" r="1" gradientUnits="userSpaceOnUse" gradientTransform="translate(-0.727951 31.1353) rotate(90) scale(6128.15 7075.18)">
<stop stop-color="#20C6B7"/>
<stop offset="1" stop-color="#4D9ABF"/>
</radialGradient>
</defs>
</svg>