<svg width="64" height="64" viewBox="0 0 64 64" fill="none" xmlns="http://www.w3.org/2000/svg">
<path d="M32 46.73C47.464 46.73 60 40.1352 60 32C60 23.8648 47.464 17.27 32 17.27C16.536 17.27 4 23.8648 4 32C4 40.1352 16.536 46.73 32 46.73Z" fill="url(#paint0_radial_567_810)"/>
<path d="M32 45.636C46.8598 45.636 58.906 39.531 58.906 32C58.906 24.469 46.8598 18.364 32 18.364C17.1402 18.364 5.09399 24.469 5.09399 32C5.09399 39.531 17.1402 45.636 32 45.636Z" fill="#6280B6"/>
<path d="M37.45 36.4L38.784 29.532C38.974 28.9442 39.0053 28.3166 38.8747 27.7129C38.744 27.1091 38.456 26.5506 38.04 26.094C36.8786 25.2693 35.4566 24.8961 34.04 25.044H31.734L32.396 21.644C32.408 21.5807 32.406 21.5155 32.39 21.4531C32.3739 21.3907 32.3443 21.3325 32.3033 21.2829C32.2622 21.2332 32.2107 21.1932 32.1524 21.1658C32.0941 21.1383 32.0304 21.124 31.966 21.124H28.766C28.6644 21.124 28.5659 21.1593 28.4875 21.2238C28.409 21.2884 28.3555 21.3783 28.336 21.478L26.918 28.77C26.8089 27.9903 26.4777 27.2586 25.964 26.662C25.392 26.0892 24.7021 25.6481 23.9421 25.3693C23.1822 25.0906 22.3706 24.9809 21.564 25.048H15.4C15.2984 25.048 15.1999 25.0833 15.1215 25.1479C15.043 25.2124 14.9895 25.3023 14.97 25.402L12.102 40.162C12.0899 40.2253 12.092 40.2905 12.108 40.3529C12.124 40.4153 12.1536 40.4735 12.1947 40.5231C12.2358 40.5728 12.2873 40.6128 12.3456 40.6402C12.4039 40.6677 12.4675 40.682 12.532 40.682H15.738C15.8396 40.682 15.9381 40.6467 16.0165 40.5821C16.0949 40.5176 16.1485 40.4277 16.168 40.328L16.862 36.758H19.262C20.3216 36.7863 21.3794 36.6514 22.398 36.358C23.2569 36.0738 24.0423 35.6033 24.698 34.98C25.2353 34.4905 25.694 33.9212 26.058 33.292L25.484 36.242C25.4719 36.3053 25.474 36.3705 25.49 36.4329C25.506 36.4953 25.5356 36.5535 25.5767 36.6031C25.6178 36.6528 25.6693 36.6928 25.7276 36.7202C25.7859 36.7477 25.8495 36.762 25.914 36.762H29.114C29.2156 36.762 29.3141 36.7267 29.3925 36.6622C29.4709 36.5976 29.5245 36.5077 29.544 36.408L31.118 28.306H33.306C34.238 28.306 34.506 28.492 34.586 28.572C34.666 28.652 34.786 28.902 34.636 29.71L33.366 36.24C33.3539 36.3033 33.356 36.3685 33.372 36.4309C33.388 36.4933 33.4176 36.5515 33.4587 36.6011C33.4998 36.6508 33.5513 36.6908 33.6096 36.7182C33.6679 36.7457 33.7315 36.76 33.796 36.76H37.036C37.1357 36.7561 37.231 36.7183 37.3063 36.6529C37.3816 36.5874 37.4323 36.4982 37.45 36.4ZM22.66 30.732C22.5622 31.5717 22.1636 32.3475 21.538 32.916C20.7521 33.4048 19.8307 33.6298 18.908 33.558H17.484L18.514 28.256H20.356C21.71 28.256 22.254 28.546 22.474 28.788C22.6418 29.08 22.7452 29.4046 22.7773 29.7399C22.8094 30.0752 22.7694 30.4134 22.66 30.732Z" fill="white"/>
<path d="M51.0921 26.664C50.5202 26.0912 49.8302 25.6501 49.0702 25.3713C48.3103 25.0926 47.4987 24.9829 46.6921 25.05H40.5101C40.4085 25.05 40.31 25.0853 40.2316 25.1498C40.1531 25.2144 40.0996 25.3043 40.0801 25.404L37.2121 40.164C37.2 40.2273 37.2021 40.2925 37.2181 40.3549C37.2341 40.4173 37.2637 40.4755 37.3048 40.5251C37.3459 40.5748 37.3974 40.6148 37.4557 40.6422C37.514 40.6697 37.5776 40.684 37.6421 40.684H40.8581C40.9597 40.684 41.0582 40.6487 41.1366 40.5842C41.2151 40.5196 41.2686 40.4297 41.2881 40.33L41.9821 36.76H44.3821C45.4418 36.7883 46.4995 36.6534 47.5181 36.36C48.377 36.0758 49.1624 35.6053 49.8181 34.982C50.941 33.97 51.6977 32.6149 51.9701 31.128C52.1853 30.3673 52.2179 29.5666 52.0653 28.7909C51.9128 28.0153 51.5793 27.2865 51.0921 26.664ZM47.7581 30.732C47.6603 31.5717 47.2617 32.3475 46.6361 32.916C45.8483 33.4054 44.9246 33.6296 44.0001 33.556H42.5801L43.6101 28.254H45.4521C46.8061 28.254 47.3501 28.544 47.5701 28.786C47.7385 29.0781 47.8425 29.403 47.8749 29.7386C47.9073 30.0743 47.8675 30.413 47.7581 30.732Z" fill="white"/>
<path d="M20.356 27.816C20.7875 27.7617 21.2255 27.7934 21.6447 27.9095C22.0638 28.0255 22.4558 28.2235 22.798 28.492C23.0188 28.8319 23.1596 29.2175 23.2098 29.6197C23.26 30.0219 23.2184 30.4302 23.088 30.814C22.9736 31.759 22.5168 32.6292 21.804 33.26C20.9442 33.8137 19.928 34.0734 18.908 34H16.952L18.152 27.822L20.356 27.816ZM12.522 40.248H15.738L16.5 36.324H19.254C20.2677 36.3517 21.2796 36.2228 22.254 35.942C23.0537 35.6779 23.7846 35.2394 24.394 34.658C25.4487 33.7092 26.1591 32.4376 26.414 31.042C26.6158 30.348 26.6513 29.6162 26.5175 28.906C26.3837 28.1957 26.0844 27.527 25.644 26.954C25.1129 26.4287 24.4735 26.0255 23.7706 25.7727C23.0677 25.5198 22.318 25.4234 21.574 25.49H15.4L12.522 40.248Z" fill="#000004"/>
<path d="M28.774 21.564H31.974L31.2 25.488H34.042C35.3473 25.3514 36.6587 25.6831 37.742 26.424C38.1006 26.8316 38.3457 27.3262 38.4527 27.8584C38.5598 28.3905 38.525 28.9415 38.352 29.456L37.018 36.324H33.78L35.05 29.794C35.1384 29.5448 35.17 29.2789 35.1423 29.0159C35.1146 28.7528 35.0284 28.4994 34.89 28.274C34.4269 27.9422 33.8548 27.7992 33.29 27.874H30.74L29.096 36.33H25.896L28.774 21.564Z" fill="#000004"/>
<path d="M45.4541 27.816C45.8856 27.7617 46.3236 27.7934 46.7428 27.9095C47.162 28.0255 47.554 28.2235 47.8961 28.492C48.1169 28.8319 48.2577 29.2175 48.3079 29.6197C48.3582 30.0219 48.3165 30.4302 48.1861 30.814C48.0718 31.759 47.615 32.6292 46.9021 33.26C46.0407 33.815 45.0221 34.0748 44.0001 34H42.0441L43.2441 27.822L45.4541 27.816ZM37.6201 40.248H40.8361L41.5981 36.324H44.3521C45.3658 36.3517 46.3777 36.2228 47.3521 35.942C48.1518 35.6779 48.8828 35.2394 49.4921 34.658C50.5468 33.7092 51.2572 32.4376 51.5121 31.042C51.7139 30.348 51.7494 29.6162 51.6156 28.906C51.4818 28.1957 51.1826 27.527 50.7421 26.954C50.211 26.4287 49.5717 26.0255 48.8687 25.7727C48.1658 25.5198 47.4162 25.4234 46.6721 25.49H40.4881L37.6201 40.248Z" fill="#000004"/>
<defs>
<radialGradient id="paint0_radial_567_810" cx="0" cy="0" r="1" gradientUnits="userSpaceOnUse" gradientTransform="translate(20.812 22.45) scale(36.768)">
<stop stop-color="white"/>
<stop offset="0.5" stop-color="#4C6B96"/>
<stop offset="1" stop-color="#231F20"/>
</radialGradient>
</defs>
</svg>