<svg width="64" height="64" viewBox="0 0 64 64" fill="none" xmlns="http://www.w3.org/2000/svg">
<path d="M31.6955 6.12399C29.5845 6.13399 27.5695 6.31349 25.7955 6.62749C20.5705 7.55049 19.6225 9.48249 19.6225 13.046V17.7515H31.969V19.32H14.9885C11.4005 19.32 8.25848 21.4765 7.27548 25.5805C6.14148 30.283 6.09148 33.218 7.27548 38.1285C8.15298 41.784 10.249 44.388 13.8375 44.388H18.083V38.747C18.083 34.6715 21.6085 31.077 25.796 31.077H38.1285C41.5615 31.077 44.3015 28.25 44.3015 24.803V13.0465C44.3015 9.69999 41.4785 7.18649 38.1285 6.62799C36.0065 6.27499 33.806 6.11449 31.6955 6.12399ZM25.0185 9.90849C26.2935 9.90849 27.3355 10.967 27.3355 12.269C27.3355 13.5655 26.294 14.614 25.0185 14.614C23.7385 14.614 22.702 13.5655 22.702 12.269C22.7015 10.967 23.7385 9.90849 25.0185 9.90849Z" fill="url(#paint0_linear_142_527)"/>
<path d="M45.8411 19.32V24.803C45.8411 29.053 42.2371 32.6305 38.1281 32.6305H25.7956C22.4176 32.6305 19.6226 35.522 19.6226 38.905V50.6625C19.6226 54.008 22.5316 55.9765 25.7956 56.936C29.7036 58.0845 33.4516 58.2925 38.1281 56.936C41.2361 56.0355 44.3011 54.2245 44.3011 50.6625V45.9565H31.9691V44.3875H50.4751C54.0631 44.3875 55.4011 41.885 56.6491 38.128C57.9381 34.2605 57.8826 30.541 56.6491 25.58C55.7621 22.0075 54.0686 19.3195 50.4751 19.3195H45.8411V19.32ZM38.9046 49.0935C40.1851 49.0935 41.2216 50.142 41.2216 51.4395C41.2216 52.7405 40.1846 53.799 38.9046 53.799C37.6296 53.799 36.5881 52.7405 36.5881 51.4395C36.5881 50.142 37.6296 49.0935 38.9046 49.0935Z" fill="url(#paint1_linear_142_527)"/>
<path opacity="0.444" d="M48.6545 59.7985C48.6545 61.57 41.2465 63.0065 32.109 63.0065C22.971 63.0065 15.563 61.57 15.563 59.7985C15.563 58.0265 22.9705 56.59 32.109 56.59C41.2465 56.59 48.6545 58.026 48.6545 59.7985Z" fill="url(#paint2_radial_142_527)"/>
<defs>
<linearGradient id="paint0_linear_142_527" x1="5.16842" y1="7.59531" x2="33.6453" y2="31.8802" gradientUnits="userSpaceOnUse">
<stop stop-color="#5A9FD4"/>
<stop offset="1" stop-color="#306998"/>
</linearGradient>
<linearGradient id="paint1_linear_142_527" x1="44.3595" y1="46.9762" x2="34.1472" y2="32.6551" gradientUnits="userSpaceOnUse">
<stop stop-color="#FFD43B"/>
<stop offset="1" stop-color="#FFE873"/>
</linearGradient>
<radialGradient id="paint2_radial_142_527" cx="0" cy="0" r="1" gradientUnits="userSpaceOnUse" gradientTransform="translate(32.0421 59.7066) rotate(-90) scale(3.20916 14.1069)">
<stop stop-color="#B8B8B8" stop-opacity="0.498"/>
<stop offset="1" stop-color="#7F7F7F" stop-opacity="0"/>
</radialGradient>
</defs>
</svg>