<svg width="64" height="64" viewBox="0 0 64 64" fill="none" xmlns="http://www.w3.org/2000/svg">
<path fill-rule="evenodd" clip-rule="evenodd" d="M0.609619 28.078C0.609619 28.4295 0.713119 28.6615 0.771119 28.887C1.14912 30.3535 1.96162 31.612 2.92562 32.76C4.29862 34.396 5.98012 35.713 7.70262 36.9515C9.19662 38.0255 10.7211 39.0755 12.2211 40.1415C12.4786 40.3245 12.7221 40.535 13.0016 40.7595C12.7611 40.8895 12.5611 41.004 12.3531 41.1095C10.3736 42.1135 8.46912 43.239 6.71362 44.6025C5.65562 45.4245 4.63262 46.298 3.91012 47.4395C2.74762 49.2755 2.33612 51.2315 3.20262 53.32C3.45562 53.93 3.84162 54.457 4.38612 54.8465C4.56262 54.9725 4.76062 55.0975 4.96712 55.1465C5.49612 55.271 6.03512 55.3525 6.57062 55.451L8.08712 55.45C9.76412 55.3005 11.2906 54.726 12.6701 53.774C14.8261 52.286 16.2786 50.291 16.9031 47.7305C17.3571 45.8695 17.3756 44.0065 16.8406 42.154C16.7894 41.9824 16.7304 41.8132 16.6636 41.647C16.5986 41.4805 16.5221 41.3185 16.4321 41.111L19.8701 39.134L19.9216 39.178C19.8591 39.3825 19.7926 39.5865 19.7361 39.793C19.3276 41.285 19.0561 42.803 19.1536 44.3515C19.2576 46.0015 19.7181 47.546 20.6841 48.9245C21.4651 50.0395 23.3261 50.081 24.1561 48.962C24.4506 48.5645 24.7361 48.149 24.9506 47.7055C25.5111 46.548 26.0301 45.37 26.5656 44.2L26.6591 43.986C26.6206 44.54 26.5756 45.0265 26.5551 45.5135C26.5231 46.274 26.5676 47.03 26.8276 47.7535C27.0501 48.3725 27.4286 48.835 28.1376 48.9165C28.6226 48.972 29.0091 48.75 29.3656 48.4685C29.9179 48.0321 30.3757 47.4879 30.7111 46.869C31.6616 45.1235 32.6376 43.3885 33.4991 41.599C34.4311 39.6635 35.2461 37.6715 36.1116 35.703L36.2546 35.354C36.4591 36.1575 36.6016 36.9445 36.8641 37.6895C37.1691 38.554 37.5466 39.398 37.9576 40.2185C38.1521 40.606 38.1296 40.8575 37.8601 41.1825C36.7321 42.5425 35.6236 43.919 34.5141 45.294C34.2686 45.5975 34.0241 45.9065 33.8196 46.238C33.6956 46.4473 33.614 46.6791 33.5796 46.92C33.5452 47.1418 33.598 47.3683 33.7269 47.552C33.8558 47.7357 34.0509 47.8624 34.2711 47.9055C34.7157 48.0012 35.1715 48.0337 35.6251 48.002C37.1736 47.888 38.5796 47.3445 39.8226 46.4235C41.4331 45.2305 41.9501 43.6025 41.5601 41.673C41.4546 41.1495 41.2681 40.6405 41.0866 40.136C41.0051 39.9085 40.9996 39.749 41.1481 39.537C42.4356 37.6985 43.5356 35.748 44.5586 33.7525C44.5991 33.674 44.6406 33.5955 44.7116 33.5115C45.0431 35.2365 45.5421 36.899 46.4361 38.4075C45.9801 38.847 45.5286 39.2455 45.1201 39.6845C44.2206 40.6515 43.4406 41.7015 43.0336 42.982C42.8586 43.534 42.7241 44.095 42.8021 44.6845C42.9231 45.6 43.6731 46.195 44.5736 45.9865C46.5006 45.5405 48.1641 44.6325 49.3796 43.024C50.1976 41.941 50.2721 40.733 49.9296 39.4675C49.8356 39.1235 49.7241 38.785 49.6041 38.3905C50.0796 38.243 50.5431 38.066 51.0226 37.9565C53.5121 37.3885 55.9746 37.4875 58.3736 38.3865C59.7741 38.9115 60.9056 39.79 61.5766 41.172C62.3961 42.8615 61.9431 44.4645 60.3506 45.5325C60.2021 45.632 60.0321 45.7105 59.9091 45.835C59.8697 45.8807 59.8403 45.934 59.8226 45.9917C59.805 46.0494 59.7995 46.1101 59.8066 46.17C59.8171 46.2315 59.9796 46.3085 60.0731 46.3075C60.5966 46.3035 61.0211 46.029 61.4286 45.747C62.4496 45.0405 63.1946 44.09 63.3551 42.8385L63.3866 42.7445L63.3481 41.9295C63.3326 41.8825 63.3596 41.836 63.3561 41.8005C63.1391 39.978 62.1656 38.5645 60.7496 37.4565C59.1096 36.174 57.1731 35.646 55.1251 35.5625C53.4641 35.491 51.8052 35.7463 50.2426 36.314C49.7941 36.4765 49.3496 36.669 48.8986 36.8505C48.8381 36.741 48.7731 36.636 48.7196 36.5275C48.2566 35.5795 47.6956 34.6735 47.5716 33.5865C47.4836 32.8145 47.3756 32.0435 47.5591 31.28C47.7356 30.5455 47.9656 29.8235 48.1821 29.099C48.2936 28.726 48.2151 28.517 47.8591 28.349C47.7351 28.2871 47.6027 28.2437 47.4661 28.22C46.5911 28.093 45.7281 28.1655 44.8806 28.412C44.5806 28.4995 44.3626 28.6675 44.2961 28.9995C44.2581 29.19 44.1806 29.3725 44.1266 29.5605C43.9051 30.342 43.7481 31.1385 43.3901 31.883C42.4931 33.7505 41.4691 35.5475 40.4211 37.3315C40.3076 37.524 40.1881 37.713 40.0451 37.9465C39.6771 37.1765 39.2846 36.4855 39.1656 35.6755C39.0311 34.7595 38.9251 33.845 39.1531 32.936C39.3226 32.258 39.5441 31.5925 39.7481 30.9235C39.8446 30.6055 39.8001 30.4385 39.5121 30.271C39.3666 30.1865 39.2021 30.1115 39.0381 30.087C38.1409 29.9503 37.2242 30.0253 36.3611 30.306C36.0896 30.394 35.9471 30.5695 35.8641 30.8495C35.6201 31.6755 35.4121 32.5215 35.0696 33.307C33.6826 36.487 32.2556 39.6505 30.8301 42.8135C30.5326 43.474 30.1841 44.1115 29.8486 44.7545C29.7636 44.9175 29.6396 45.061 29.5336 45.214C29.4486 45.1135 29.4156 45.0445 29.4161 44.9755C29.4186 44.569 29.3701 44.1505 29.4476 43.7575C29.6856 42.5689 29.9487 41.3855 30.2366 40.208C30.4716 39.235 30.7451 38.271 31.0056 37.3045C31.0931 36.981 31.0946 36.6785 30.8621 36.4065C30.4716 35.951 29.6556 35.851 29.1716 36.202L28.9576 36.323L28.9991 35.978C29.1011 35.2385 29.1216 34.5015 28.9186 33.773C28.6656 32.865 28.0176 32.3425 27.0756 32.3715C26.6366 32.385 26.1756 32.46 25.7691 32.62C24.0596 33.29 22.7451 34.4765 21.6261 35.904C21.5224 36.0365 21.3938 36.1476 21.2476 36.231C19.8011 37.033 18.3501 37.825 16.8996 38.62L15.2851 39.5045C14.8521 39.0915 14.4586 38.663 14.0121 38.2995C12.6486 37.1875 11.2631 36.103 9.89012 35.0035C8.67312 34.029 7.49412 33.014 6.59212 31.7235C5.92112 30.7635 5.48862 29.713 5.44712 28.526C5.39462 27.0135 5.82362 25.6315 6.59362 24.345C7.57862 22.699 8.92212 21.378 10.3991 20.1815C11.9616 18.9165 13.6516 17.8425 15.4031 16.862C17.8536 15.4905 20.3741 14.2765 23.0766 13.475C25.8476 12.653 28.6591 12.1825 31.5591 12.5105C32.6991 12.6395 33.8061 12.9005 34.8226 13.458C35.6011 13.8845 36.2396 14.443 36.5366 15.316C36.8296 16.175 36.8206 17.0455 36.6176 17.918C36.2051 19.685 35.2376 21.1415 34.0201 22.443C32.0231 24.5765 29.5871 26.029 26.8446 26.9885C25.2678 27.5409 23.6271 27.8909 21.9621 28.03C20.5976 28.1445 19.2616 28.0235 17.9696 27.549C17.1141 27.2345 16.3691 26.7535 15.7701 26.0555C15.6631 25.9305 15.5261 25.795 15.3266 25.912C15.1311 26.027 15.0966 26.213 15.1621 26.4015C15.2716 26.7145 15.3726 27.0405 15.5431 27.3205C15.9716 28.023 16.5966 28.5325 17.2846 28.9695C18.6061 29.81 20.0831 30.0925 21.6146 30.158C23.9386 30.2585 26.2061 29.9115 28.4416 29.288C31.6331 28.398 34.4081 26.826 36.6336 24.346C38.4866 22.281 39.8101 19.9505 40.0936 17.1365C40.2321 15.763 40.0846 14.4175 39.4416 13.1645C38.7441 11.807 37.6351 10.7975 36.3091 10.102C34.3781 9.0895 32.2941 8.5 30.1431 8.5H27.9881C25.3831 8.5 22.8646 9.2465 20.4166 10.137C18.5636 10.8115 16.7466 11.6075 14.9826 12.4885C11.1411 14.408 7.56362 16.7225 4.62512 19.905C3.16112 21.4905 1.92162 23.24 1.20862 25.3C0.993422 25.915 0.808039 26.5401 0.653119 27.173M14.5726 45.1795C14.4061 47.409 13.3956 49.2165 11.7441 50.6805C10.8151 51.5035 9.74962 52.0895 8.50862 52.2955C8.05862 52.37 7.59812 52.388 7.16162 52.2015C6.53912 51.9355 6.39962 51.383 6.38762 50.7945C6.36912 49.8565 6.69762 49.0085 7.14812 48.2015C7.73612 47.1495 8.59812 46.3475 9.51862 45.5985C10.9686 44.418 12.5416 43.419 14.1526 42.476L14.2741 42.426C14.5231 43.346 14.6416 44.2545 14.5726 45.1795ZM27.1516 35.49C27.0341 36.202 26.8871 36.9145 26.6791 37.6045C25.9601 39.993 25.0366 42.3075 24.0381 44.591C23.8536 45.0135 23.5851 45.399 23.3516 45.7995C23.3119 45.8611 23.2643 45.9172 23.2101 45.9665C22.9211 46.252 22.6471 46.237 22.5011 45.8635C22.3311 45.4295 22.2266 44.965 22.1366 44.5055C22.0761 44.197 22.0906 43.873 22.0716 43.557C22.0911 41.31 22.7766 39.268 23.9396 37.367C24.4191 36.583 24.9411 35.836 25.7386 35.34C25.9867 35.1858 26.2551 35.0669 26.5361 34.987C26.9611 34.8675 27.2221 35.064 27.1516 35.49ZM35.7336 46.424L38.8181 42.8225C38.9466 44.16 36.6731 46.83 35.7336 46.424ZM45.5851 44.0005C45.3671 44.1255 45.1296 44.2155 44.9061 44.331C44.7016 44.437 44.6341 44.33 44.6281 44.154C44.6251 44.0322 44.6408 43.9106 44.6746 43.7935C45.0911 42.3245 45.8576 41.0705 46.9981 40.0505L47.0781 40.0095C47.6206 41.527 46.9936 43.1935 45.5851 44.0005Z" fill="#CB6699"/>
</svg>