<svg width="64" height="64" viewBox="0 0 64 64" fill="none" xmlns="http://www.w3.org/2000/svg">
<path d="M1 31.955V63.205H63.5V0.704987H1V31.955ZM51.365 29.455C52.8619 29.8024 54.2225 30.5853 55.275 31.705C55.8544 32.3082 56.3581 32.9798 56.775 33.705C56.775 33.785 54.075 35.61 52.43 36.63C52.37 36.67 52.13 36.41 51.865 36.015C51.5647 35.4968 51.138 35.0632 50.6248 34.7545C50.1115 34.4459 49.5285 34.2723 48.93 34.25C47.035 34.12 45.815 35.115 45.825 36.75C45.8093 37.1571 45.9025 37.5609 46.095 37.92C46.51 38.785 47.285 39.3 49.715 40.35C54.19 42.275 56.105 43.545 57.295 45.35C58.625 47.35 58.92 50.58 58.02 52.97C57.02 55.57 54.57 57.335 51.105 57.92C49.5224 58.1012 47.9234 58.0845 46.345 57.87C43.9361 57.4792 41.7139 56.3322 40 54.595C39.425 53.96 38.305 52.305 38.375 52.185C38.5575 52.0495 38.7497 51.9275 38.95 51.82L41.25 50.5L43.045 49.46L43.42 50.015C44.0529 50.9203 44.8583 51.6917 45.79 52.285C47.79 53.335 50.52 53.19 51.87 51.975C52.3233 51.5298 52.606 50.9397 52.6691 50.3075C52.7321 49.6752 52.5714 49.0409 52.215 48.515C51.715 47.82 50.715 47.235 47.92 46.015C44.695 44.625 43.305 43.765 42.035 42.395C41.2422 41.4909 40.6568 40.4243 40.32 39.27C40.0688 37.9512 40.0316 36.6006 40.21 35.27C40.875 32.155 43.21 29.98 46.62 29.335C48.1992 29.1396 49.7989 29.1834 51.365 29.465V29.455ZM36.695 32.075V34.635H28.58V57.75H22.825V34.63H14.69V32.13C14.6682 31.2694 14.6915 30.4082 14.76 29.55C14.79 29.51 19.76 29.49 25.76 29.5H36.665L36.695 32.075Z" fill="#007ACC"/>
</svg>